<svg xmlns="http://www.w3.org/2000/svg" style="display: none;"><symbol id="factory" viewBox="0 0 512 512"><title>factory</title><path d="m504.5 497h-9.284v-302.425h1.759c4.143 0 7.5-3.357 7.5-7.5s-3.357-7.5-7.5-7.5h-1.759v-25.699c0-4.143-3.357-7.5-7.5-7.5h-80.092c-4.143 0-7.5 3.357-7.5 7.5v25.699h-1.759c-4.143 0-7.5 3.357-7.5 7.5s3.357 7.5 7.5 7.5h1.759v200.219h-31.873v-283.057c0-4.143-3.357-7.5-7.5-7.5h-11.237v-9.669c0-4.143-3.357-7.5-7.5-7.5s-7.5 3.357-7.5 7.5v9.669h-196.137c-4.143 0-7.5 3.357-7.5 7.5s3.357 7.5 7.5 7.5h12.993v56.95h-52.293v-56.95h9.312c4.143 0 7.5-3.357 7.5-7.5s-3.357-7.5-7.5-7.5h-57.868v-9.669c0-4.143-3.357-7.5-7.5-7.5s-7.5 3.357-7.5 7.5v9.669h-11.238c-4.143 0-7.5 3.357-7.5 7.5v276.725c0 4.143 3.357 7.5 7.5 7.5s7.5-3.357 7.5-7.5v-31.774h321.468v140.312h-38.567v-27.411h6.217c8.308 0 15.066-6.759 15.066-15.065v-32.759c0-8.308-6.759-15.066-15.066-15.066h-108.825c-8.308 0-15.066 6.759-15.066 15.066v32.759c0 8.307 6.759 15.065 15.066 15.065h6.217v27.411h-63.019v-73.011c0-9.534-7.756-17.291-17.29-17.291h-65.987c-9.534 0-17.29 7.757-17.29 17.291v73.011h-22.924v-78.551c0-4.143-3.357-7.5-7.5-7.5s-7.5 3.357-7.5 7.5v78.551h-9.283c-4.143 0-7.5 3.357-7.5 7.5s3.357 7.5 7.5 7.5h497c4.143 0 7.5-3.357 7.5-7.5s-3.357-7.5-7.5-7.5zm-292.49-42.477.066-32.825 108.891.066-.066 32.824h-6.217v-4.921c0-11.729-9.542-21.271-21.271-21.271s-21.271 9.542-21.271 21.271v4.921h-11.309v-4.921c0-11.729-9.542-21.271-21.271-21.271s-21.271 9.542-21.271 21.271v4.888zm48.824 15.066h11.309v27.411h-11.309zm-191.127 27.411v-73.011c0-1.264 1.027-2.291 2.29-2.291h65.987c1.263 0 2.29 1.027 2.29 2.291v73.011zm163.586 0v-47.332c0-3.458 2.812-6.271 6.271-6.271s6.271 2.812 6.271 6.271v47.332zm53.85 0v-47.332c0-3.458 2.812-6.271 6.271-6.271s6.271 2.812 6.271 6.271v47.332zm127.981-160.312h17.535c4.143 0 7.5-3.357 7.5-7.5s-3.357-7.5-7.5-7.5h-17.535v-72.656h65.058v72.656h-17.535c-4.143 0-7.5 3.357-7.5 7.5s3.357 7.5 7.5 7.5h17.569v72.656h-65.092zm0-175.312h65.092v18.199h-65.092zm65.092 33.199v39.456h-65.092v-39.456zm-80.092 215.219v16.904h-31.873v-16.904zm-166.46-114.882v-56.949h52.294v56.949zm-67.294 0v-56.949h52.294v56.949zm-67.293 0v-56.949h52.293v56.949zm-67.294 0v-56.949h52.294v56.949zm321.468-103.724v31.775h-321.468v-31.775zm-119.587-15v-56.95h52.294v56.95zm67.294 61.775h52.293v56.949h-52.293zm52.293-61.775h-52.293v-56.95h52.293zm-186.881-56.951h52.294v56.95h-52.294zm-134.587 0h52.294v56.95h-52.294zm0 222.451v-31.775h321.468v31.775zm336.468 100.01h31.873v55.302h-31.873zm46.873 55.302v-72.656h65.058v72.656z"/><path d="m412.606 110.653h6.931c3.717 0 6.741 3.024 6.741 6.741v12.739c0 4.143 3.357 7.5 7.5 7.5s7.5-3.357 7.5-7.5v-12.739c0-11.988-9.753-21.741-21.741-21.741h-6.931c-3.717 0-6.741-3.024-6.741-6.742v-81.411c0-4.143-3.357-7.5-7.5-7.5s-7.5 3.357-7.5 7.5v81.411c0 11.988 9.753 21.742 21.741 21.742z"/><path d="m458.988 137.634c4.143 0 7.5-3.357 7.5-7.5v-50.935c0-3.717 3.024-6.741 6.741-6.741h4.104c11.988 0 21.742-9.754 21.742-21.742v-43.216c0-4.143-3.357-7.5-7.5-7.5s-7.5 3.357-7.5 7.5v43.216c0 3.718-3.024 6.742-6.742 6.742h-4.104c-11.988 0-21.741 9.753-21.741 21.741v50.935c0 4.142 3.358 7.5 7.5 7.5z"/><path d="m420.866 56.471c4.143 0 7.5-3.357 7.5-7.5v-41.471c0-4.143-3.357-7.5-7.5-7.5s-7.5 3.357-7.5 7.5v41.471c0 4.142 3.358 7.5 7.5 7.5z"/><path d="m458.988 46.471c4.143 0 7.5-3.357 7.5-7.5v-16.602c0-4.143-3.357-7.5-7.5-7.5s-7.5 3.357-7.5 7.5v16.602c0 4.142 3.358 7.5 7.5 7.5z"/><path d="m426.278 80.771c0 4.143 3.357 7.5 7.5 7.5s7.5-3.357 7.5-7.5v-11.955c0-4.143-3.357-7.5-7.5-7.5s-7.5 3.357-7.5 7.5z"/><path d="m472.019 103.153v12.979c0 4.143 3.357 7.5 7.5 7.5s7.5-3.357 7.5-7.5v-12.979c0-4.143-3.357-7.5-7.5-7.5s-7.5 3.358-7.5 7.5z"/></symbol><symbol id="power-plant" viewBox="0 0 512 512"><title>power-plant</title><path d="m504.5 490.453h-12.896l-30.076-268.166 4.521-.021c4.142-.02 7.484-3.393 7.465-7.535-.02-4.13-3.373-7.465-7.499-7.465h-.036l-13.689.064v-27.01h9.125c4.143 0 7.5-3.357 7.5-7.5s-3.357-7.5-7.5-7.5h-9.125v-10.114h.125c4.143 0 7.5-3.357 7.5-7.5s-3.357-7.5-7.5-7.5h-.125v-2.267c0-4.143-3.357-7.5-7.5-7.5s-7.5 3.357-7.5 7.5v2.267h-.125c-4.143 0-7.5 3.357-7.5 7.5s3.357 7.5 7.5 7.5h.125v10.114h-9.125c-4.143 0-7.5 3.357-7.5 7.5s3.357 7.5 7.5 7.5h9.125v27.08l-44.088.207v-27.287h9.124c4.143 0 7.5-3.357 7.5-7.5s-3.357-7.5-7.5-7.5h-9.124v-10.114h.124c4.143 0 7.5-3.357 7.5-7.5s-3.357-7.5-7.5-7.5h-.124v-2.267c0-4.143-3.357-7.5-7.5-7.5s-7.5 3.357-7.5 7.5v2.267h-.125c-4.143 0-7.5 3.357-7.5 7.5s3.357 7.5 7.5 7.5h.125v10.114h-9.125c-4.143 0-7.5 3.357-7.5 7.5s3.357 7.5 7.5 7.5h9.125v27.357l-13.76.064c-4.142.02-7.484 3.393-7.465 7.535.02 4.13 3.373 7.465 7.499 7.465h.036l4.401-.021-4.588 40.908c-7.52-2.755-18.286-4.265-30.469 1.441-11.063 5.183-15.865 14.901-19.372 21.998-1.099 2.225-1.987 3.931-2.757 5.233v-187.84c0-4.143-3.357-7.5-7.5-7.5h-26.98v-82.913c0-4.143-3.357-7.5-7.5-7.5h-33.449c-4.143 0-7.5 3.357-7.5 7.5s3.357 7.5 7.5 7.5h25.949v75.413h-189.158v-75.413h133.221c4.143 0 7.5-3.357 7.5-7.5s-3.357-7.5-7.5-7.5h-140.721c-4.143 0-7.5 3.357-7.5 7.5v82.913h-26.98c-4.143 0-7.5 3.357-7.5 7.5v223.111h-6.014c-6.239 0-11.314 5.076-11.314 11.315v18.765c0 6.239 5.075 11.315 11.314 11.315h6.014v121.485h-16.109c-4.143 0-7.5 3.357-7.5 7.5s3.357 7.5 7.5 7.5h497c4.143 0 7.5-3.357 7.5-7.5s-3.357-7.498-7.5-7.498zm-150.521 0 7.129-63.561 97.848 31.847-69.344 31.714zm24.021-214.178c.001-.009.002-.018.003-.027l1.074-9.575 64.146 29.027-70.683 29.25zm93.648 170.82-92.702-30.172 85.956-29.979zm-9.158-81.651-77.619-29.363 71.029-29.394zm-92.37-18.906 79.19 29.958-85.91 29.963zm103.91 121.801 2.48 22.114h-50.834zm-20.695-184.528-64.447-29.164 53.056-32.268 4.499-.021zm-40.483-61.296-30.932 18.813 2.095-18.678zm-374.244-110.555h258.118v215.611h-258.118zm-17.328 230.612h292.774v11.396h-292.774zm92.436 91.813h46.451v56.067h-46.451zm61.451 56.068v-56.067h46.452v56.067zm61.452 0v-56.067h.904c4.143 0 7.5-3.357 7.5-7.5s-3.357-7.5-7.5-7.5h-139.712c-4.143 0-7.5 3.357-7.5 7.5s3.357 7.5 7.5 7.5h.905v56.067h-60.108v-121.486h258.118v42.925c0 4.143 3.357 7.5 7.5 7.5s7.5-3.357 7.5-7.5v-42.925h6.013c6.239 0 11.315-5.076 11.315-11.315v-18.765c0-6.239-5.076-11.315-11.315-11.315h-6.013v-16.933c8.903-2.163 13.017-10.472 16.205-16.925 3.076-6.225 5.981-12.104 12.287-15.059 9.743-4.566 18.039-1.733 22.359.553l-23.692 211.245h-27.159v-48.574c0-4.143-3.357-7.5-7.5-7.5s-7.5 3.357-7.5 7.5v48.574z"/><path d="m99.894 87.576c1.312.922 2.816 1.365 4.307 1.365 2.359-.001 4.683-1.111 6.143-3.188l18.716-26.623c1.609-2.29 1.811-5.286.521-7.771-1.291-2.484-3.857-4.043-6.656-4.043h-8.364l4.267-5.808c2.452-3.338 1.734-8.032-1.604-10.484-3.338-2.454-8.032-1.735-10.484 1.604l-13.04 17.748c-1.674 2.278-1.925 5.305-.647 7.827 1.276 2.523 3.864 4.113 6.691 4.113h8.741l-10.411 14.81c-2.385 3.389-1.569 8.068 1.82 10.45z"/><path d="m229.397 36.007h-75.649c-4.143 0-7.5 3.357-7.5 7.5s3.357 7.5 7.5 7.5h75.649c4.143 0 7.5-3.357 7.5-7.5s-3.357-7.5-7.5-7.5z"/><path d="m229.397 67.501h-75.649c-4.143 0-7.5 3.357-7.5 7.5s3.357 7.5 7.5 7.5h75.649c4.143 0 7.5-3.357 7.5-7.5s-3.357-7.5-7.5-7.5z"/><path d="m103.722 232.792h-31.299c-5.511 0-9.994 4.483-9.994 9.994v58.151c0 5.511 4.483 9.994 9.994 9.994h31.299c5.511 0 9.994-4.483 9.994-9.994v-58.151c0-5.51-4.484-9.994-9.994-9.994zm-5.006 63.14h-21.287v-48.14h21.287z"/><path d="m262.912 232.792h-31.3c-5.51 0-9.993 4.483-9.993 9.994v58.151c0 5.511 4.483 9.994 9.993 9.994h31.3c5.51 0 9.993-4.483 9.993-9.994v-58.151c0-5.51-4.483-9.994-9.993-9.994zm-5.007 63.14h-21.286v-48.14h21.286z"/><path d="m103.722 128.6h-31.299c-5.511 0-9.994 4.483-9.994 9.994v58.152c0 5.51 4.483 9.993 9.994 9.993h31.299c5.511 0 9.994-4.483 9.994-9.993v-58.152c0-5.511-4.484-9.994-9.994-9.994zm-5.006 63.14h-21.287v-48.14h21.287z"/><path d="m183.317 128.6h-31.3c-5.511 0-9.994 4.483-9.994 9.994v58.152c0 5.51 4.483 9.993 9.994 9.993h31.3c5.51 0 9.993-4.483 9.993-9.993v-58.152c.001-5.511-4.483-9.994-9.993-9.994zm-5.006 63.14h-21.287v-48.14h21.287z"/><path d="m262.912 128.6h-31.3c-5.51 0-9.993 4.483-9.993 9.994v58.152c0 5.51 4.483 9.993 9.993 9.993h31.3c5.51 0 9.993-4.483 9.993-9.993v-58.152c0-5.511-4.483-9.994-9.993-9.994zm-5.007 63.14h-21.286v-48.14h21.286z"/><path d="m183.317 232.792h-31.3c-5.51 0-9.993 4.483-9.993 9.994v18.224c0 4.143 3.357 7.5 7.5 7.5s7.5-3.357 7.5-7.5v-13.218h21.286v48.14h-21.286v-4.935c0-4.143-3.357-7.5-7.5-7.5s-7.5 3.357-7.5 7.5v9.94c0 5.511 4.483 9.994 9.993 9.994h31.3c5.51 0 9.993-4.483 9.993-9.994v-58.151c.001-5.51-4.483-9.994-9.993-9.994z"/></symbol><symbol id="oil-pump" viewBox="0 0 512.016 512.016"><title>oil-pump</title><path d="m463.295 76.593c3.15-2.688 3.526-7.422.838-10.573-2.688-3.149-7.42-3.527-10.574-.838l-16.191 13.813c-3.15 2.688-3.526 7.422-.838 10.573 1.483 1.739 3.59 2.632 5.71 2.632 1.721 0 3.451-.589 4.864-1.794z"/><path d="m430.592 231.665v9.229c0 4.142 3.357 7.5 7.5 7.5s7.5-3.358 7.5-7.5v-9.229c0-4.142-3.357-7.5-7.5-7.5s-7.5 3.358-7.5 7.5z"/><path d="m51.393 386.588c-7.811 7.812-7.811 20.521 0 28.334 7.829 7.829 20.504 7.832 28.335-.001 7.811-7.812 7.811-20.521 0-28.333-7.83-7.83-20.505-7.831-28.335 0zm17.727 17.726c-1.961 1.961-5.143 1.976-7.12.001-1.963-1.964-1.963-5.158 0-7.12 1.961-1.961 5.144-1.976 7.12 0 1.963 1.962 1.963 5.157 0 7.119z"/><path d="m138.514 356.134c7.831-7.831 7.832-20.503.001-28.334-7.83-7.83-20.503-7.831-28.334 0s-7.83 20.502 0 28.334c7.829 7.829 20.502 7.831 28.333 0zm-17.726-17.727c1.972-1.972 5.155-1.965 7.119-.001v.001c1.968 1.968 1.97 5.15 0 7.12-1.968 1.968-5.15 1.967-7.12-.001-1.964-1.964-1.971-5.147.001-7.119z"/><path d="m86.432 361.376c-2.93 2.929-2.93 7.678-.001 10.606l7.9 7.901c1.465 1.465 3.384 2.197 5.304 2.197 1.919 0 3.839-.732 5.303-2.196 2.93-2.929 2.93-7.678.001-10.606l-7.9-7.901c-2.931-2.929-7.68-2.93-10.607-.001z"/><path d="m245.059 116.593h34.922c4.143 0 7.5-3.358 7.5-7.5s-3.357-7.5-7.5-7.5h-34.922c-4.143 0-7.5 3.358-7.5 7.5s3.357 7.5 7.5 7.5z"/><path d="m504.508 497.016h-124.675v-30.021c0-7.774-6.325-14.099-14.1-14.099h-14.281v-32.428c0-6.446-5.245-11.69-11.691-11.69h-9.415l-34.825-269.078h13.131c9.453 0 17.144-7.69 17.144-17.143v-29.09l80.121 8.603v222.397c0 2.681 1.431 5.158 3.753 6.497 2.287 1.319 5.149 1.358 7.504-.006 22.182-12.837 40.012-33.08 52.997-60.169 1.791-3.735.215-8.215-3.521-10.005-3.732-1.792-8.214-.216-10.005 3.521-9.327 19.456-21.312 34.905-35.729 46.091 0-9.291 0-229.369 0-240.885l48.319-41.223c14.777 85.604 14.08 155.816-2.078 208.75-1.21 3.962 1.021 8.154 4.983 9.363 3.96 1.208 8.153-1.021 9.362-4.983 17.126-56.1 17.716-130.127 1.754-220.025-.783-4.406-3.888-8.083-8.102-9.594s-8.945-.647-12.35 2.257l-51.504 43.94-218.427-42.593c-4.071-.793-8.004 1.861-8.797 5.926s1.86 8.004 5.926 8.797l215.914 42.104v14.755c-12.041-1.294-341.886-36.713-353.012-37.907l1.782-3.243c12.501-22.741 38.014-34.682 63.486-29.716l41.843 8.16c4.075.796 8.004-1.861 8.797-5.926s-1.86-8.004-5.926-8.797l-41.843-8.16c-31.896-6.221-63.847 8.735-79.501 37.213l-7.207 13.111c-1.209 2.198-1.238 4.855-.078 7.08s3.355 3.722 5.85 3.99l24.012 2.578v14.023c0 9.174 7.464 16.638 16.639 16.638h7.936v222.233l-30.937 30.936c-2.929 2.93-2.929 7.678 0 10.607 2.929 2.927 7.677 2.929 10.607 0l39.541-39.541c10.54-10.54 27.603-10.541 38.146 0 10.517 10.518 10.517 27.63 0 38.146l-62.585 62.584c-10.515 10.517-27.629 10.519-38.146 0-10.518-10.517-10.518-27.629 0-38.146l1.84-1.84c2.929-2.93 2.929-7.678 0-10.607-2.93-2.928-7.678-2.928-10.607 0l-1.84 1.84c-16.365 16.366-16.365 42.994 0 59.36 1.455 1.455 2.995 2.775 4.598 3.971l-19.986 61.442h-11.817c-4.143 0-7.5 3.357-7.5 7.5s3.357 7.5 7.5 7.5h497c4.143 0 7.5-3.357 7.5-7.5s-3.358-7.498-7.5-7.498zm-168.056-44.12h-147.865v-29.118h147.865zm-26.937-88.204-76.866-29.821 69.154-29.768zm-10.64-82.214-59.515-28.728 52.079-28.728zm-18.13-140.079 7.366 56.914-41.682-27.03zm-20.258-2.249-17.922 15.607 2.02-15.607zm-21.731 45.035 43.136 27.973-50.352 27.774zm-10.346 79.936 60.498 29.202-68.07 29.301zm-10.376 80.17 81.453 31.6-58.547 31.797c-.052.028-.098.062-.149.091h-30.974zm54.169 63.487 40.193-21.828 2.825 21.828zm38.592-286.22c0 1.182-.962 2.143-2.144 2.143h-92.265c-1.182 0-2.143-.961-2.143-2.143v-41.07l96.551 10.368v30.702zm-231.677-43.167v-12.412l34.148 3.667v8.746c0 .903-.734 1.638-1.638 1.638h-30.871c-.903-.001-1.639-.736-1.639-1.639zm77.539 289.627c16.364-16.365 16.364-42.993 0-59.359-14.594-14.593-36.904-16.01-52.965-5.258v-208.372h7.937c9.174 0 16.638-7.464 16.638-16.638v-7.135l70.978 7.622v42.68c0 9.453 7.69 17.143 17.143 17.143h13.132l-34.826 269.078h-9.415c-6.446 0-11.69 5.244-11.69 11.69v32.428h-14.282c-7.774 0-14.099 6.324-14.099 14.099v30.021h-26.538l-22.093-67.918zm-121.56 127.998 17.806-54.739c3.751 1.061 7.619 1.6 11.49 1.599 6.759-.001 13.517-1.621 19.639-4.857l18.865 57.997zm125.109 0v-29.119h204.627v29.119z"/></symbol><symbol id="industry" viewBox="0 0 512 512"><title>industry</title><path d="m120.14 236.303c0 5.623 2.19 10.909 6.166 14.886 4.104 4.104 9.494 6.155 14.886 6.155 5.39 0 10.782-2.052 14.885-6.155 1.191-1.191-1.781 1.781 25.061-25.061 0-.001 0-.001 0-.001 8.207-8.208 8.207-21.563 0-29.771-8.208-8.207-21.564-8.205-29.771 0-1.191 1.191 1.781-1.781-25.061 25.061-3.976 3.976-6.166 9.262-6.166 14.886zm50.392-29.34c2.359 2.359 2.359 6.198 0 8.559l-7.226 7.227-8.559-8.559 7.227-7.227c2.359-2.359 6.199-2.359 8.558 0zm-33.62 25.06 7.227-7.228 8.558 8.559-7.227 7.227c-2.36 2.36-6.199 2.358-8.558 0-2.364-2.364-2.365-6.193 0-8.558z"/><path d="m214.059 212.807h71.464c4.143 0 7.5-3.357 7.5-7.5s-3.357-7.5-7.5-7.5h-71.464c-4.142 0-7.5 3.357-7.5 7.5s3.358 7.5 7.5 7.5z"/><path d="m214.059 249.737h71.464c4.143 0 7.5-3.357 7.5-7.5s-3.357-7.5-7.5-7.5h-71.464c-4.142 0-7.5 3.357-7.5 7.5s3.358 7.5 7.5 7.5z"/><path d="m504.5 497h-18.925l-2.061-20.824c-.409-4.122-4.079-7.124-8.202-6.726-4.122.408-7.133 4.081-6.726 8.202l1.915 19.348h-87.622v-70.158h80.678l2.061 20.824c.384 3.87 3.646 6.762 7.455 6.762.247 0 .496-.013.748-.037 4.121-.408 7.132-4.081 6.725-8.203-.506-5.11-26.847-271.217-27.196-274.748h2.749c6.716 0 12.18-5.464 12.18-12.181v-15.584c0-6.716-5.464-12.18-12.18-12.18h-112.978c-6.716 0-12.18 5.464-12.18 12.18v15.584c0 6.717 5.464 12.181 12.18 12.181h2.75l-7.604 76.832c-.004.039-.008.079-.01.092l-2.746 27.741h-15.341v-98.747c0-11.534-9.384-20.918-20.918-20.918h-141.625c-4.142 0-7.5 3.357-7.5 7.5s3.358 7.5 7.5 7.5h141.625c3.263 0 5.918 2.654 5.918 5.918v98.747h-201.923v-98.747c0-3.264 2.655-5.918 5.918-5.918h18.476c4.142 0 7.5-3.357 7.5-7.5s-3.358-7.5-7.5-7.5h-18.476c-11.534 0-20.918 9.384-20.918 20.918v98.747h-75.208c-7.19-.001-13.039 5.848-13.039 13.038v14.812c0 7.189 5.849 13.038 13.039 13.038h12.499v75.011c0 4.143 3.358 7.5 7.5 7.5s7.5-3.357 7.5-7.5v-75.011h327.341v180.007h-80.141v-61.154c0-7.367-5.994-13.361-13.362-13.361h-140.336c-7.368 0-13.362 5.994-13.362 13.361v61.154h-80.14v-75.011c0-4.143-3.358-7.5-7.5-7.5s-7.5 3.357-7.5 7.5v75.011h-18.038c-4.142 0-7.5 3.357-7.5 7.5s3.358 7.5 7.5 7.5h497c4.143 0 7.5-3.357 7.5-7.5s-3.358-7.5-7.5-7.5zm-121.621-85.158v-70.08h72.257l6.936 70.08zm62.332-170.33h-91.201l6.935-70.07h77.332zm-99.27-95.017h107.337v9.944h-107.337zm-330.941 155.497v-10.888h378.417v10.888c-21.242 0-356.7 0-378.417 0zm380.378 15c7.189 0 13.039-5.849 13.039-13.038v-14.812c0-7.189-5.85-13.038-13.039-13.038h-44.793l1.939-19.593h94.173l6.953 70.25h-70.771v-9.77h12.499zm-259.7 120.492h61.03v59.516h-61.03zm76.03 59.516v-59.516h61.03v59.516z"/><path d="m100.276 403.242c6.968 0 12.637-5.669 12.637-12.638v-42.54c0-6.968-5.669-12.637-12.637-12.637h-30.932c-6.968 0-12.637 5.669-12.637 12.637v42.54c0 6.969 5.669 12.638 12.637 12.638zm-28.57-52.814h26.207v37.814h-26.207z"/><path d="m179.875 403.242c6.968 0 12.637-5.669 12.637-12.638v-42.54c0-6.968-5.669-12.637-12.637-12.637h-30.933c-6.968 0-12.637 5.669-12.637 12.637v42.54c0 6.969 5.669 12.638 12.637 12.638zm-28.57-52.814h26.207v37.814h-26.207z"/><path d="m259.474 403.242c6.968 0 12.637-5.669 12.637-12.638v-42.54c0-6.968-5.669-12.637-12.637-12.637h-30.933c-6.968 0-12.637 5.669-12.637 12.637v42.54c0 6.969 5.669 12.638 12.637 12.638zm-28.569-52.814h26.207v37.814h-26.207z"/><path d="m339.073 403.242c6.969 0 12.638-5.669 12.638-12.638v-42.54c0-6.968-5.669-12.637-12.638-12.637h-30.933c-6.968 0-12.637 5.669-12.637 12.637v42.54c0 6.969 5.669 12.638 12.637 12.638zm-28.569-52.814h26.207v37.814h-26.207z"/><path d="m366.38 82.975c8.089 0 14.67 6.58 14.67 14.669v17.111c0 4.143 3.357 7.5 7.5 7.5s7.5-3.357 7.5-7.5v-17.111c0-16.359-13.31-29.669-29.67-29.669-8.089 0-14.669-6.581-14.669-14.67v-45.805c0-4.143-3.357-7.5-7.5-7.5s-7.5 3.357-7.5 7.5v45.805c0 16.36 13.309 29.67 29.669 29.67z"/><path d="m410.778 103.509v11.246c0 4.143 3.357 7.5 7.5 7.5s7.5-3.357 7.5-7.5v-11.246c0-4.126 3.357-7.482 7.483-7.482h12.534c12.396 0 22.482-10.086 22.482-22.483v-38.545c0-4.143-3.357-7.5-7.5-7.5s-7.5 3.357-7.5 7.5v38.544c0 4.126-3.356 7.483-7.482 7.483h-12.534c-12.397 0-22.483 10.086-22.483 22.483z"/><path d="m415.351 73.444c4.143 0 7.5-3.357 7.5-7.5v-58.444c0-4.143-3.357-7.5-7.5-7.5s-7.5 3.357-7.5 7.5v58.444c0 4.143 3.358 7.5 7.5 7.5z"/><path d="m376.182 55.462c4.143 0 7.5-3.357 7.5-7.5v-17.564c0-4.143-3.357-7.5-7.5-7.5s-7.5 3.357-7.5 7.5v17.563c0 4.143 3.358 7.501 7.5 7.501z"/></symbol><symbol id="electric-power" viewBox="0 0 480 480.09942"><title>electric-power</title><path d="m304.378906 304.097656 16.480469-56h103.191406v1.472656c-11.019531 3.898438-17.632812 15.167969-15.65625 26.6875 1.976563 11.519532 11.964844 19.941407 23.65625 19.941407 11.6875 0 21.675781-8.421875 23.652344-19.941407 1.976563-11.519531-4.632813-22.789062-15.652344-26.6875v-9.472656c0-2.515625-1.1875-4.886718-3.199219-6.398437l-94.082031-70.550781-38.71875-108.425782v-8.09375c11.019531-3.898437 17.628907-15.167968 15.652344-26.6875-1.976563-11.519531-11.964844-19.941406-23.652344-19.941406-11.691406 0-21.679687 8.421875-23.65625 19.941406-1.976562 11.519532 4.636719 22.789063 15.65625 26.6875v8.09375l-37.601562 105.375h-20.800781l-37.597657-105.375v-8.09375c11.019531-3.898437 17.628907-15.167968 15.652344-26.6875-1.976563-11.519531-11.964844-19.941406-23.652344-19.941406-11.691406 0-21.679687 8.421875-23.65625 19.941406-1.976562 11.519532 4.636719 22.789063 15.65625 26.6875v8.09375l-38.722656 108.425782-94.078125 70.550781c-2.015625 1.511719-3.199219 3.882812-3.199219 6.398437v9.472656c-11.019531 3.898438-17.632812 15.167969-15.65625 26.6875 1.976563 11.519532 11.964844 19.941407 23.65625 19.941407 11.6875 0 21.675781-8.421875 23.652344-19.941407 1.976563-11.519531-4.632813-22.789062-15.652344-26.6875v-1.472656h103.199219l16.480469 56-45.722657 160h-129.9570308v16h479.9999998v-16h-129.960937zm-48.328125-128h59.0625l-75.0625 67.203125-75.066406-67.203125zm23.640625 136-39.640625 50.96875-39.640625-50.96875zm-74.707031-16 35.066406-31.367187 35.0625 31.367187zm87.707031 25.355469 15.253906 53.398437-52.695312-5.265624zm-.746094-31.761719-39.894531-35.695312 68.390625-61.199219zm75.0625-88.375-39.6875 24.800782 13.152344-44.714844zm-227.382812-19.90625 13.152344 44.714844-39.6875-24.800781zm88.425781 72.585938-39.898437 35.703125-28.496094-96.902344zm-40.640625 67.457031 37.441406 48.132813-52.699218 5.265624zm125.261719 69.949219 15.859375 55.480468-65.480469-60.4375zm119.378906-111.304688c-4.417969 0-8-3.578125-8-8 0-4.417968 3.582031-8 8-8s8 3.582032 8 8c0 4.421875-3.582031 8-8 8zm-84.105469-48 32.800782-20.484375 27.304687 20.484375zm-29.777343-90.269531-33.703125-29.496094 11.585937-32.441406zm-22.117188-125.730469c4.417969 0 8 3.582032 8 8 0 4.421875-3.582031 8-8 8s-8-3.578125-8-8c0-4.417968 3.582031-8 8-8zm-17.378906 112.433594 36.082031 31.566406h-47.351562zm-113.324219 31.566406 36.078125-31.566406 11.273438 31.566406zm-3.417968-18.269531 22.121093-61.9375 11.582031 32.441406zm22.121093-125.730469c4.417969 0 8 3.582032 8 8 0 4.421875-3.582031 8-8 8s-8-3.578125-8-8c0-4.417968 3.582031-8 8-8zm-136 264c-4.417969 0-8-3.578125-8-8 0-4.417968 3.582031-8 8-8s8 3.582032 8 8c0 4.421875-3.582031 8-8 8zm51.320313-68.484375 32.78125 20.484375h-60.101563zm68.054687 179.789063 49.601563-4.957032-65.457032 60.4375zm72.625-4.414063 83.535157 77.109375h-167.070313zm0 0"/></symbol><symbol id="power" viewBox="0 0 512 512"><title>power</title><path d="M469.335,273.067h-17.067V256h17.067c4.233,0,7.825-3.106,8.44-7.296c0.623-4.19-1.929-8.192-5.99-9.412l-164.582-49.374 v-84.582l103.996,31.198h-86.929c-4.719,0-8.533,3.823-8.533,8.533c0,4.71,3.814,8.533,8.533,8.533h110.933v17.067h-17.067 c-4.719,0-8.533,3.823-8.533,8.533s3.814,8.533,8.533,8.533h51.2c4.719,0,8.533-3.823,8.533-8.533s-3.814-8.533-8.533-8.533 h-17.067V153.6h17.067c4.233,0,7.825-3.106,8.44-7.296c0.623-4.19-1.929-8.192-5.99-9.412l-167.1-50.133L264.373,4.77 c-1.425-2.901-4.369-4.753-7.603-4.77h-0.06c-3.209,0-6.153,1.801-7.612,4.668l-43.375,85.333 c-0.043,0.094-0.026,0.188-0.068,0.282c-0.247,0.512-0.316,1.075-0.461,1.63c-0.137,0.555-0.316,1.101-0.333,1.664 c0,0.102-0.06,0.188-0.06,0.29v42.667H101.923l88.218-25.95c4.523-1.323,7.108-6.067,5.777-10.59 c-1.323-4.514-6.042-7.117-10.59-5.786L40.262,136.875c-4.07,1.203-6.647,5.205-6.042,9.412c0.606,4.198,4.207,7.313,8.448,7.313 h17.067v17.067H42.668c-4.719,0-8.533,3.823-8.533,8.533s3.814,8.533,8.533,8.533h51.2c4.719,0,8.533-3.823,8.533-8.533 s-3.814-8.533-8.533-8.533H76.801V153.6h128v85.333H101.923l88.218-25.95c4.523-1.323,7.108-6.067,5.777-10.59 c-1.323-4.514-6.042-7.108-10.59-5.786L40.262,239.275c-4.07,1.203-6.647,5.205-6.042,9.412c0.606,4.198,4.207,7.313,8.448,7.313 h17.067v17.067H42.668c-4.719,0-8.533,3.823-8.533,8.533s3.814,8.533,8.533,8.533h51.2c4.719,0,8.533-3.823,8.533-8.533 s-3.814-8.533-8.533-8.533H76.801V256H202.02l-63.394,221.867h-27.691c-4.719,0-8.533,3.823-8.533,8.533v17.067 c0,4.71,3.814,8.533,8.533,8.533s8.533-3.823,8.533-8.533v-8.533h25.583h0.026h221.824h0.026h25.609v8.533 c0,4.71,3.814,8.533,8.533,8.533s8.533-3.823,8.533-8.533V486.4c0-4.71-3.814-8.533-8.533-8.533h-27.691l-66.176-231.595v-38.537 l103.996,31.198h-86.929c-4.719,0-8.533,3.823-8.533,8.533s3.814,8.533,8.533,8.533h110.933v17.067h-17.067 c-4.719,0-8.533,3.823-8.533,8.533s3.814,8.533,8.533,8.533h51.2c4.719,0,8.533-3.823,8.533-8.533 S474.054,273.067,469.335,273.067z M156.383,477.867l27.887-97.587l55.842,35.524l-59.52,37.879 c-3.977,2.526-5.146,7.808-2.62,11.785c1.63,2.551,4.386,3.951,7.211,3.951c1.57,0,3.149-0.427,4.574-1.34l66.244-42.155 l81.621,51.942H156.383z M352.556,467.132L189.16,363.153l19.43-68.019l31.932,21.086l-31.889,21.052 c-3.934,2.594-5.018,7.893-2.415,11.827c1.63,2.483,4.352,3.823,7.125,3.823c1.613,0,3.251-0.452,4.693-1.408l37.965-25.071 l61.116,40.354l-40.277,25.634c-3.968,2.534-5.146,7.799-2.611,11.784c1.621,2.552,4.386,3.951,7.211,3.951 c1.562,0,3.149-0.435,4.574-1.34l41.719-26.547L352.556,467.132z M318.261,347.102l-57.515-37.973 c-0.009-0.009-0.017-0.017-0.034-0.026l-47.198-31.172L219.777,256h53.291c4.719,0,8.533-3.823,8.533-8.533 s-3.814-8.533-8.533-8.533h-51.2V204.8h51.2c4.719,0,8.533-3.823,8.533-8.533s-3.814-8.533-8.533-8.533h-51.2V153.6h51.2 c4.719,0,8.533-3.823,8.533-8.533c0-4.71-3.814-8.533-8.533-8.533h-51.2V102.4h42.667c4.719,0,8.533-3.823,8.533-8.533 c0-4.71-3.814-8.533-8.533-8.533h-37.291l29.338-57.719l33.553,68.241v151.612c0,0.794,0.111,1.579,0.324,2.347l8.038,28.117 l-21.299,14.063c-3.934,2.594-5.009,7.893-2.415,11.819c1.638,2.492,4.361,3.831,7.125,3.831c1.621,0,3.251-0.452,4.693-1.408 l16.811-11.102L318.261,347.102z"/></symbol><symbol id="light-bulb" viewBox="0 0 512 512"><title>light-bulb</title><path d="M207.3,301.167c-3.336,3.337-3.336,8.73,0,12.066l25.6,25.6c1.664,1.664,3.849,2.5,6.033,2.5 c2.185,0,4.369-0.836,6.033-2.5c3.336-3.336,3.336-8.73,0-12.066l-25.6-25.6C216.03,297.83,210.637,297.83,207.3,301.167z"/><path d="M409.6,153.6c0-16.196-11.981-28.86-31.983-33.86l-52.651-13.73l50.5-3.61c18.825,0,34.133-15.309,34.133-34.133 c0-16.196-11.981-28.86-31.983-33.86L277.103,8.192C273.553,5.513,265.131,0,256,0c-9.028,0-17.263,5.444-20.89,8.243 l-40.695,9.028c-4.599,1.024-7.501,5.572-6.485,10.18c1.024,4.591,5.564,7.552,10.189,6.477l42.667-9.463 c1.417-0.316,2.739-0.99,3.823-1.963c1.92-1.707,7.441-5.436,11.392-5.436c3.977,0,9.566,3.652,11.631,5.402 c0.981,0.845,2.15,1.459,3.422,1.792l102.349,26.684c5.751,1.442,19.132,6.007,19.132,17.323c0,9.412-7.663,17.067-17.672,17.084 L136.533,102.4c-9.412,0-17.067-7.654-17.067-17.067c0-9.412,7.654-17.067,17.69-17.092l145.067-10.667 c4.702-0.341,8.235-4.437,7.885-9.131c-0.341-4.702-4.497-8.286-9.131-7.885L136.533,51.2c-18.825,0-34.133,15.309-34.133,34.133 c0,17.894,13.892,32.452,31.949,33.843c0.017,0,0.017,0.009,0.034,0.017l52.386,13.636l-50.236,3.703 c-18.825,0-34.133,15.309-34.133,34.133c0,17.894,13.892,32.452,31.949,33.843c0.017,0,0.017,0.009,0.034,0.017l52.386,13.636 l-50.236,3.703c-18.825,0-34.133,15.309-34.133,34.133c0,18.807,15.292,34.116,34.697,34.116h0.043l24.619-1.766 c-4.719,5.222-8.158,11.511-8.158,18.85c0,18.978,15.42,29.542,20.335,32.427c3.55,3.806,10.069,12.211,12.646,20.702 c-9.327,3.831-15.915,12.988-15.915,23.671c0,6.554,2.475,12.536,6.536,17.067c-4.062,4.531-6.536,10.513-6.536,17.067 c0,6.554,2.475,12.535,6.536,17.067c-4.062,4.531-6.536,10.513-6.536,17.067c0,14.114,11.486,25.6,25.6,25.6 c4.719,0,8.533-3.823,8.533-8.533s-3.814-8.533-8.533-8.533c-4.71,0-8.533-3.831-8.533-8.533c0-4.702,3.823-8.533,8.533-8.533 H281.6c4.719,0,8.533-3.823,8.533-8.533s-3.814-8.533-8.533-8.533h-85.333c-4.71,0-8.533-3.831-8.533-8.533 s3.823-8.533,8.533-8.533H281.6c4.719,0,8.533-3.823,8.533-8.533s-3.814-8.533-8.533-8.533h-85.333 c-4.71,0-8.533-3.831-8.533-8.533c0-4.702,3.823-8.533,8.533-8.533H281.6c4.719,0,8.533-3.823,8.533-8.533 s-3.814-8.533-8.533-8.533h-77.798c-3.763-16.401-16.853-29.918-18.568-31.633c-0.623-0.623-1.382-1.169-2.167-1.579 c-0.128-0.06-12.399-6.537-12.399-17.988c0-7.603,14.421-16.777,24.158-20.582c0.427-0.162,0.725-0.486,1.109-0.708 l110.396-7.893c18.193,5.495,35.004,15.326,35.004,20.651c0,11.008-10.522,24.021-14.601,28.134 c-1.997,2.022-19.533,20.309-19.533,40.132c0,4.71,3.814,8.533,8.533,8.533c4.71,0,8.533,3.831,8.533,8.533 c0,4.702-3.823,8.533-8.533,8.533c-4.719,0-8.533,3.823-8.533,8.533s3.814,8.533,8.533,8.533c4.71,0,8.533,3.831,8.533,8.533 s-3.823,8.533-8.533,8.533c-4.719,0-8.533,3.823-8.533,8.533s3.814,8.533,8.533,8.533c4.71,0,8.533,3.831,8.533,8.533 c0,4.864-3.669,8.533-8.533,8.533H230.4c-4.719,0-8.533,3.823-8.533,8.533V486.4c0,14.114,11.486,25.6,25.6,25.6h17.067 c14.114,0,25.6-11.486,25.6-25.6v-8.533h25.6c14.362,0,25.6-11.247,25.6-25.6c0-6.554-2.475-12.535-6.536-17.067 c4.062-4.531,6.536-10.513,6.536-17.067c0-6.554-2.475-12.535-6.536-17.067c4.062-4.531,6.536-10.513,6.536-17.067 c0-10.684-6.588-19.823-15.889-23.663c2.807-9.097,10.163-18.21,13.389-21.504c1.997-1.997,19.567-20.139,19.567-40.166 c0-9.523-7.134-17.263-16.128-23.228l33.195-2.372c18.825,0,34.133-15.309,34.133-34.133c0-16.196-11.981-28.86-31.983-33.86 l-52.651-13.73l50.5-3.61C394.291,187.733,409.6,172.425,409.6,153.6z M273.067,486.4c0,4.702-3.823,8.533-8.533,8.533h-17.067 c-4.71,0-8.533-3.831-8.533-8.533v-8.533h34.133V486.4z M373.402,221.611c5.751,1.442,19.132,6.008,19.132,17.323 c0,9.412-7.663,17.067-17.672,17.084l-68.173,4.881c-0.282,0.017-0.555,0.017-0.836,0.06l-169.318,12.109 c-9.412,0-17.067-7.654-17.067-17.067c0-9.412,7.654-17.067,17.69-17.092l101.581-7.467c0.06,0,0.137,0.026,0.205,0.026 c0.154,0,0.299-0.068,0.461-0.077l42.82-3.149c4.702-0.341,8.235-4.437,7.885-9.131c-0.341-4.702-4.497-8.269-9.131-7.885 l-41.429,3.046l-50.671-13.193l83.004-5.939L373.402,221.611z M136.533,187.733c-9.412,0-17.067-7.654-17.067-17.067 c0-9.412,7.654-17.067,17.69-17.092l101.581-7.467c0.06,0,0.137,0.026,0.205,0.026c0.154,0,0.299-0.068,0.461-0.077l42.82-3.149 c4.702-0.341,8.235-4.429,7.885-9.131c-0.341-4.702-4.497-8.277-9.131-7.885l-41.429,3.046l-50.671-13.193l83.004-5.939 l101.521,26.47c5.751,1.442,19.132,6.007,19.132,17.323c0,9.412-7.663,17.067-17.672,17.084L136.533,187.733z"/><path d="M267.034,338.833c1.664,1.664,3.849,2.5,6.033,2.5c2.185,0,4.369-0.836,6.033-2.5l25.6-25.6 c3.336-3.337,3.336-8.73,0-12.066l-8.533-8.533c-3.336-3.337-8.73-3.337-12.066,0c-3.337,3.337-3.337,8.73,0,12.066l2.5,2.5 l-19.567,19.567C263.697,330.103,263.697,335.497,267.034,338.833z"/></symbol><symbol id="light-bulb-1" viewBox="0 0 512 512"><title>light-bulb-1</title><path d="M281.6,332.8c4.719,0,8.533-3.823,8.533-8.533V204.8h25.6c23.526,0,42.667-19.14,42.667-42.667 c0-23.526-19.14-42.667-42.667-42.667c-23.526,0-42.667,19.14-42.667,42.667v25.6h-34.133v-25.6 c0-23.526-19.14-42.667-42.667-42.667c-23.526,0-42.667,19.14-42.667,42.667c0,23.526,19.14,42.667,42.667,42.667h25.6v119.467 c0,4.71,3.823,8.533,8.533,8.533s8.533-3.823,8.533-8.533V204.8h34.133v119.467C273.067,328.977,276.881,332.8,281.6,332.8z M290.133,162.133c0-14.114,11.486-25.6,25.6-25.6s25.6,11.486,25.6,25.6s-11.486,25.6-25.6,25.6h-25.6V162.133z M221.867,187.733h-25.6c-14.114,0-25.6-11.486-25.6-25.6s11.486-25.6,25.6-25.6s25.6,11.486,25.6,25.6V187.733z"/><path d="M60.928,18.15l32.666,27.418c1.604,1.348,3.55,1.997,5.487,1.997c2.432,0,4.855-1.033,6.536-3.046 c3.029-3.61,2.56-8.994-1.05-12.023L71.902,5.077c-3.61-3.021-8.986-2.551-12.023,1.05C56.849,9.745,57.318,15.121,60.928,18.15z "/><path d="M66.449,92.612L26.368,78.029c-4.429-1.604-9.318,0.674-10.94,5.103c-1.604,4.429,0.674,9.327,5.103,10.94l40.081,14.583 c0.964,0.35,1.946,0.521,2.918,0.521c3.482,0,6.758-2.159,8.021-5.623C73.165,99.123,70.878,94.225,66.449,92.612z"/><path d="M412.894,47.565c1.928,0,3.874-0.657,5.47-1.997l32.683-27.435c3.61-3.029,4.087-8.405,1.05-12.023 c-3.004-3.593-8.388-4.079-12.015-1.05l-32.683,27.435c-3.61,3.029-4.079,8.405-1.05,12.023 C408.03,46.524,410.453,47.565,412.894,47.565z"/><path d="M51.183,162.15H8.533c-4.71,0-8.533,3.823-8.533,8.533c0,4.71,3.823,8.533,8.533,8.533h42.65 c4.71,0,8.533-3.823,8.533-8.533C59.716,165.973,55.893,162.15,51.183,162.15z"/><path d="M496.555,83.106c-1.604-4.42-6.511-6.716-10.931-5.094l-40.09,14.592c-4.437,1.613-6.716,6.511-5.103,10.94 c1.263,3.465,4.531,5.615,8.021,5.615c0.964,0,1.954-0.162,2.91-0.521l40.098-14.592 C495.889,92.433,498.176,87.535,496.555,83.106z"/><path d="M256,0C161.894,0,85.333,76.561,85.333,170.667c0,72.021,28.245,125.747,88.909,169.079 c0.29,0.205,0.717,0.461,1.033,0.631c0.444,0.239,9.626,5.367,11.93,19.755c-9.634,3.678-16.538,12.954-16.538,23.868 c0,6.554,2.475,12.536,6.536,17.067c-4.062,4.531-6.536,10.513-6.536,17.067c0,6.554,2.475,12.535,6.536,17.067 c-4.062,4.531-6.536,10.513-6.536,17.067c0,14.114,11.486,25.6,25.6,25.6c4.71,0,8.533-3.823,8.533-8.533 s-3.823-8.533-8.533-8.533c-4.702,0-8.533-3.831-8.533-8.533c0-4.702,3.831-8.533,8.533-8.533H281.6 c4.719,0,8.533-3.823,8.533-8.533s-3.814-8.533-8.533-8.533h-85.333c-4.702,0-8.533-3.831-8.533-8.533s3.831-8.533,8.533-8.533 H281.6c4.719,0,8.533-3.823,8.533-8.533s-3.814-8.533-8.533-8.533h-85.333c-4.702,0-8.533-3.831-8.533-8.533 c0-4.702,3.831-8.533,8.533-8.533H281.6c4.719,0,8.533-3.823,8.533-8.533s-3.814-8.533-8.533-8.533h-77.38 c-3.021-21.487-16.947-30.797-20.437-32.811c-56.286-40.337-81.382-88.132-81.382-154.923c0-84.693,68.907-153.6,153.6-153.6 s153.6,68.907,153.6,153.6c0,66.79-25.097,114.586-81.382,154.923c-3.925,2.261-21.018,13.739-21.018,41.344 c0,4.71,3.814,8.533,8.533,8.533c4.71,0,8.533,3.831,8.533,8.533c0,4.702-3.823,8.533-8.533,8.533 c-4.719,0-8.533,3.823-8.533,8.533s3.814,8.533,8.533,8.533c4.71,0,8.533,3.831,8.533,8.533s-3.823,8.533-8.533,8.533 c-4.719,0-8.533,3.823-8.533,8.533s3.814,8.533,8.533,8.533c4.71,0,8.533,3.831,8.533,8.533c0,4.864-3.669,8.533-8.533,8.533 H230.4c-4.71,0-8.533,3.823-8.533,8.533V486.4c0,14.114,11.486,25.6,25.6,25.6h17.067c14.114,0,25.6-11.486,25.6-25.6v-8.533 h25.6c14.362,0,25.6-11.247,25.6-25.6c0-6.554-2.475-12.535-6.537-17.067c4.062-4.531,6.537-10.513,6.537-17.067 c0-6.554-2.475-12.535-6.537-17.067c4.062-4.531,6.537-10.513,6.537-17.067c0-10.914-6.904-20.19-16.546-23.868 c2.304-14.387,11.477-19.507,11.827-19.703c0.401-0.196,0.785-0.427,1.143-0.683c60.655-43.332,88.909-97.058,88.909-169.079 C426.667,76.561,350.106,0,256,0z M273.067,486.4c0,4.702-3.823,8.533-8.533,8.533h-17.067c-4.702,0-8.533-3.831-8.533-8.533 v-8.533h34.133V486.4z"/><path d="M503.467,162.133H460.8c-4.719,0-8.533,3.823-8.533,8.533s3.814,8.533,8.533,8.533h42.667 c4.719,0,8.533-3.823,8.533-8.533S508.186,162.133,503.467,162.133z"/></symbol><symbol id="power-transformer" viewBox="0 0 480 480"><title>power-transformer</title><path d="m32 288h16v112h-16zm0 0"/><path d="m64 288h16v112h-16zm0 0"/><path d="m96 288h16v112h-16zm0 0"/><path d="m128 288h16v112h-16zm0 0"/><path d="m336 288h16v112h-16zm0 0"/><path d="m368 288h16v112h-16zm0 0"/><path d="m400 288h16v112h-16zm0 0"/><path d="m432 288h16v112h-16zm0 0"/><path d="m472 232h-24v-24c0-4.417969-3.582031-8-8-8h-24v-8h8c4.417969 0 8-3.582031 8-8v-32c0-4.417969-3.582031-8-8-8h-8v-8h8c4.417969 0 8-3.582031 8-8v-32c0-4.417969-3.582031-8-8-8h-8v-8h8c4.417969 0 8-3.582031 8-8v-32c0-4.417969-3.582031-8-8-8h-16v-8c0-13.253906-10.746094-24-24-24s-24 10.746094-24 24v8h-16c-4.417969 0-8 3.582031-8 8v32c0 4.417969 3.582031 8 8 8h8v8h-8c-4.417969 0-8 3.582031-8 8v32c0 4.417969 3.582031 8 8 8h8v8h-8c-4.417969 0-8 3.582031-8 8v32c0 4.417969 3.582031 8 8 8h8v8h-80v-8h8c4.417969 0 8-3.582031 8-8v-32c0-4.417969-3.582031-8-8-8h-8v-8h8c4.417969 0 8-3.582031 8-8v-32c0-4.417969-3.582031-8-8-8h-8v-8h8c4.417969 0 8-3.582031 8-8v-32c0-4.417969-3.582031-8-8-8h-16v-8c0-13.253906-10.746094-24-24-24s-24 10.746094-24 24v8h-16c-4.417969 0-8 3.582031-8 8v32c0 4.417969 3.582031 8 8 8h8v8h-8c-4.417969 0-8 3.582031-8 8v32c0 4.417969 3.582031 8 8 8h8v8h-8c-4.417969 0-8 3.582031-8 8v32c0 4.417969 3.582031 8 8 8h8v8h-80v-8h8c4.417969 0 8-3.582031 8-8v-32c0-4.417969-3.582031-8-8-8h-8v-8h8c4.417969 0 8-3.582031 8-8v-32c0-4.417969-3.582031-8-8-8h-8v-8h8c4.417969 0 8-3.582031 8-8v-32c0-4.417969-3.582031-8-8-8h-16v-8c0-13.253906-10.746094-24-24-24s-24 10.746094-24 24v8h-16c-4.417969 0-8 3.582031-8 8v32c0 4.417969 3.582031 8 8 8h8v8h-8c-4.417969 0-8 3.582031-8 8v32c0 4.417969 3.582031 8 8 8h8v8h-8c-4.417969 0-8 3.582031-8 8v32c0 4.417969 3.582031 8 8 8h8v8h-24c-4.417969 0-8 3.582031-8 8v24h-24c-4.417969 0-8 3.582031-8 8v208c0 4.417969 3.582031 8 8 8h16v16c0 4.417969 3.582031 8 8 8h416c4.417969 0 8-3.582031 8-8v-16h16c4.417969 0 8-3.582031 8-8v-208c0-4.417969-3.582031-8-8-8zm-96-208c0-4.417969 3.582031-8 8-8s8 3.582031 8 8v8h-16zm-24 24h64v16h-64zm16 32h32v8h-32zm-16 24h64v16h-64zm16 32h32v8h-32zm-16 24h64v16h-64zm16 32h32v8h-32zm-136-168c0-4.417969 3.582031-8 8-8s8 3.582031 8 8v8h-16zm-24 24h64v16h-64zm16 32h32v8h-32zm-16 24h64v16h-64zm16 32h32v8h-32zm-16 24h64v16h-64zm16 32h32v8h-32zm-136-168c0-4.417969 3.582031-8 8-8s8 3.582031 8 8v8h-16zm-24 24h64v16h-64zm16 32h32v8h-32zm-16 24h64v16h-64zm16 32h32v8h-32zm-16 24h64v16h-64zm16 32h32v8h-32zm-32 24h384v16h-384zm392 248h-400v-8h400zm24-24h-448v-192h448zm0 0"/><path d="m240 264c-44.183594 0-80 35.816406-80 80s35.816406 80 80 80 80-35.816406 80-80c-.046875-44.164062-35.835938-79.953125-80-80zm0 144c-35.347656 0-64-28.652344-64-64s28.652344-64 64-64 64 28.652344 64 64c-.039062 35.328125-28.671875 63.960938-64 64zm0 0"/></symbol></svg>